<?xml version="1.0" encoding="utf-8"?>
<!-- Generator: Adobe Illustrator 24.2.3, SVG Export Plug-In . SVG Version: 6.00 Build 0)  -->
<svg version="1.1" id="Layer_1" xmlns="http://www.w3.org/2000/svg" xmlns:xlink="http://www.w3.org/1999/xlink" x="0px" y="0px"
	 viewBox="0 0 582.4 152.9" style="enable-background:new 0 0 582.4 152.9;" xml:space="preserve">
<style type="text/css">
	.st0{fill:#97231F;}
</style>
<g>
	<path class="st0" d="M129,64.9c2.3-2.2,5-5.3,8.2-7.8"/>
	<path class="st0" d="M153,113v9.1l-16.1,16C114,92.8,140.3,73.9,153,55.3v21.1l-3-2.9c-1.1-1.1-2.9-1-4,0.1s-1.1,2.9,0,4l7,6.6V92
		l-14.5-0.7c-1.6-0.1-2.9,1.1-3,2.7s1.1,2.9,2.6,3.1l14.8,0.7v8.6l-15.8,6.2c-1.5,0.6-2.3,2.4-1.7,3.9c0.5,1.6,2.3,2.4,3.8,1.8l14-5
		L153,113z"/>
	<path class="st0" d="M141,8.7l4.1,4.4c0.6,0.7,1.7,0.8,2.5,0.2c0.7-0.7,0.7-1.8,0.1-2.5l-4.7-5c1.6-2.2,3.5-4.1,5.6-5.8h20v46
		h-10.3c2-6.4,1.4-13.2-4.1-21.5c15.3,38.3-64.1,37.1-29.7,126l-1.8,2.1h-77l-30.6-30.5v-76H-0.3v-46h76.5v46H60.8v61h46v-61H91.6
		v-46h49.3c-16.1,12-25.9,43.1-11.8,64.9c2.3-2.2,5-5.3,8.2-7.8c-1.5-2.4-2.6-5.1-3.4-7.8l16.5-6.4c1-0.4,1.5-1.4,1.1-2.4
		s-1.4-1.5-2.4-1.1L133,45.7c-0.7-3.9-0.9-7.9-0.6-11.8l16.2-0.5c1,0,1.8-0.9,1.8-1.9s-0.9-1.8-1.9-1.8l-15,0.5
		c0.5-3.5,1.3-7,2.4-10.4l11.2,3.7c0.9,0.3,2-0.1,2.3-1.1c0.3-0.9-0.2-2-1.1-2.3l-11.1-3.6c2-2.7,3-5.3,5-7.7L141,8.7z"/>
</g>
<g>
	<path class="st0" d="M262,29.5v71.8h-13.4V71.9h-29v29.7h-13.2V30.1h13v30.1h28.8V30.1h13L262,29.5z"/>
	<path class="st0" d="M282,29.5h44.4v11.9h-31.2V60h27.3v11.8h-27.3v17.6h32.2v11.9H282V29.8V29.5z"/>
	<path class="st0" d="M384,83.8h-26.8l-6.6,17.4h-14.2l26.9-71.8h14.4l26.9,71.8h-14.1l-6-17.2L384,83.8z M362,72.2h17.9l-9.1-27.4
		l-9,27.4H362z"/>
	<path class="st0" d="M416,29.5h13.3v59.9H457v11.9h-41V29.8V29.5z"/>
	<path class="st0" d="M458,29.5h53.9v12.2h-20.2v59.6h-13.4V42H458V29.8V29.5z"/>
	<path class="st0" d="M582,29.5v71.8h-13V71.9h-28.8v29.7h-13V30.1h13.2v30.1h28.8V30.1h13L582,29.5z"/>
	<path class="st0" d="M222,143v-17.1h4.1V143c0.1,5.2-4.1,9.4-9.2,9.5h-0.5c-5.2,0-9.7-3.7-9.7-9.5v-17.1h4.1V143
		c0,3.1,2.5,5.6,5.6,5.6s6-1,6-5L222,143z"/>
	<path class="st0" d="M252,152h-3.8L237,133.3V152h-4v-26.2h3.9l11.1,18.6v-18.6h4v26V152z"/>
	<path class="st0" d="M258,126h4v26.2h-4v-26V126z"/>
	<path class="st0" d="M272,126l5.6,19.5l5.6-19.5h4.2l-7.9,26.2h-3.8l-7.9-26.2h4H272z"/>
	<path class="st0" d="M292,126h15.8v3.7h-11.7v7.8h10.3v3.7h-10.3v7.3h12.1v3.7h-16.1v-27L292,126z"/>
	<path class="st0" d="M332,152h-4.9l-6.5-9.6h-2.8v9.6h-4.1v-26.2h10.2c5.6,0,8,4.1,8,8.3c0,3.8-1.9,7.6-6.8,8.1l8,10L332,152z
		 M318,130v9.2h5.9c2.9,0,4.1-2.3,4.1-4.6s-1.1-4.6-4-4.6L318,130L318,130z"/>
	<path class="st0" d="M342,145c0.1,2.1,2.1,4.3,5.2,4.3s4.7-1.7,4.9-3.6c0.1-2.4-1.7-3.7-4.1-4.3l-3.3-0.8c-5.6-1.5-6.5-4.7-6.5-7
		c0-4.5,4-7.5,8.6-7.5c4.8,0,8.5,3,8.5,7.8h-4c0-2.4-1.9-4-4.6-4c-2.4,0-4.5,1.4-4.5,3.6c0,1,0.4,2.6,3.5,3.4l3.3,0.9
		c5.3,1.4,7.5,4.4,7.1,8.1c-0.4,4.1-3.9,7-8.9,7c-5.4,0-9.2-3.7-9.2-8h4V145z"/>
	<path class="st0" d="M361,126h4v26.2h-4v-26V126z"/>
	<path class="st0" d="M370,126h19.5v3.8h-7.7v22.4h-4.1v-22.4H370v-4L370,126z"/>
	<path class="st0" d="M402,152v-12l-10-14.2h4.8l7.2,10.4l7.3-10.4h4.8L406,140v12H402L402,152z"/>
	<path class="st0" d="M441,126c7.4-0.1,13.5,5.8,13.6,13.2s-5.8,13.5-13.2,13.6s-13.5-5.8-13.6-13.2v-0.2
		c-0.1-7.3,5.8-13.3,13.1-13.4v-1L441,126z M441,149c5.2,0.2,9.6-4,9.8-9.2s-4-9.6-9.2-9.8s-9.6,4-9.8,9.2v0.3
		c-0.1,5.1,3.9,9.4,9.1,9.5v1L441,149z"/>
	<path class="st0" d="M460,126h15.6v3.7h-11.5v7.8h9.1v3.7h-9.1v11h-4v-27L460,126z"/>
	<path class="st0" d="M505,143v-17.1h4.1V143c0.1,5.2-4.1,9.4-9.2,9.5h-0.5c-5.2,0-9.7-3.7-9.7-9.5v-17.1h4.1V143
		c0,3.1,2.5,5.6,5.6,5.6s5-1,5-5L505,143z"/>
	<path class="st0" d="M514,126h19.5v3.8h-8v22.4h-4.1v-22.4h-7.7v-4L514,126z"/>
	<path class="st0" d="M551,146h-10.6l-2.5,6.5h-4.3l9.8-26.2h4.4l9.9,26.2h-4.2l-3-6L551,146z M542,142h7.8l-3.9-11l-4,11H542z"/>
	<path class="st0" d="M582,126v26.2h-4.1V141h-11.8v11.2h-4V126h4v11.3h11.8V126H582L582,126z"/>
</g>
</svg>
